<svg id="svg" version="1.1" xmlns="http://www.w3.org/2000/svg" xmlns:xlink="http://www.w3.org/1999/xlink" width="80" height="80" viewBox="0, 0, 400,400"><g id="svgg"><path id="path0" d="M215.500 0.274 C 214.015 0.364,212.800 0.608,212.800 0.818 C 212.800 1.028,211.630 1.200,210.200 1.200 C 208.733 1.200,207.600 1.374,207.600 1.600 C 207.600 1.820,206.801 2.000,205.824 2.000 C 204.847 2.000,203.936 2.180,203.800 2.400 C 203.664 2.620,202.944 2.800,202.200 2.800 C 201.456 2.800,200.736 2.980,200.600 3.200 C 200.464 3.420,199.744 3.600,199.000 3.600 C 198.256 3.600,197.536 3.780,197.400 4.000 C 197.264 4.220,196.623 4.400,195.976 4.400 C 195.329 4.400,194.800 4.580,194.800 4.800 C 194.800 5.020,194.260 5.200,193.600 5.200 C 192.940 5.200,192.400 5.380,192.400 5.600 C 192.400 5.820,191.950 6.000,191.400 6.000 C 190.850 6.000,190.400 6.180,190.400 6.400 C 190.400 6.620,189.860 6.800,189.200 6.800 C 188.540 6.800,188.000 6.980,188.000 7.200 C 188.000 7.420,187.460 7.600,186.800 7.600 C 186.140 7.600,185.600 7.780,185.600 8.000 C 185.600 8.220,185.144 8.400,184.587 8.400 C 184.030 8.400,182.276 9.030,180.689 9.800 C 179.101 10.570,177.577 11.200,177.301 11.200 C 177.026 11.200,176.800 11.380,176.800 11.600 C 176.800 11.820,176.485 12.006,176.100 12.013 C 175.715 12.020,175.058 12.284,174.641 12.600 C 174.224 12.916,173.729 13.080,173.541 12.964 C 173.353 12.848,173.200 12.943,173.200 13.176 C 173.200 13.409,172.880 13.600,172.488 13.600 C 172.097 13.600,171.517 13.960,171.200 14.400 C 170.883 14.840,170.303 15.200,169.912 15.200 C 169.520 15.200,169.200 15.380,169.200 15.600 C 169.200 15.820,168.840 16.000,168.400 16.000 C 167.960 16.000,167.600 16.180,167.600 16.400 C 167.600 16.620,167.364 16.800,167.075 16.800 C 166.787 16.800,166.164 17.160,165.692 17.600 C 165.220 18.040,164.556 18.400,164.217 18.400 C 163.878 18.400,163.600 18.580,163.600 18.800 C 163.600 19.020,163.364 19.200,163.075 19.200 C 162.787 19.200,162.164 19.560,161.692 20.000 C 161.220 20.440,160.710 20.800,160.560 20.800 C 160.410 20.800,159.771 21.340,159.140 22.000 C 158.509 22.660,157.764 23.200,157.485 23.200 C 157.205 23.200,156.717 23.560,156.400 24.000 C 156.083 24.440,155.586 24.800,155.295 24.800 C 155.004 24.800,154.549 24.984,154.283 25.208 C 152.172 26.990,151.356 27.599,151.078 27.600 C 150.901 27.600,149.696 28.680,148.400 30.000 C 147.104 31.320,145.914 32.400,145.755 32.400 C 145.316 32.400,136.400 41.559,136.400 42.009 C 136.400 42.224,136.234 42.400,136.032 42.400 C 135.829 42.400,135.554 42.901,135.419 43.513 C 135.285 44.126,134.709 45.161,134.141 45.813 C 133.572 46.466,131.361 49.340,129.228 52.200 C 125.415 57.310,123.353 60.560,118.696 68.800 L 117.678 70.600 75.739 70.800 C 36.034 70.989,33.743 71.039,32.728 71.728 C 29.315 74.045,29.315 79.155,32.728 81.472 C 33.744 82.162,35.850 82.206,72.788 82.308 C 94.231 82.367,111.919 82.559,112.095 82.735 C 112.271 82.911,111.719 85.022,110.868 87.427 C 110.018 89.832,109.005 93.105,108.618 94.700 L 107.914 97.600 71.483 97.600 C 35.579 97.600,35.028 97.612,33.359 98.420 C 30.163 99.967,29.133 103.898,31.174 106.763 C 32.983 109.304,31.321 109.200,69.964 109.200 C 93.175 109.200,105.238 109.337,105.402 109.603 C 105.539 109.825,105.460 111.310,105.227 112.903 C 104.994 114.496,104.667 117.690,104.501 120.000 L 104.200 124.200 69.200 124.400 L 34.200 124.600 32.775 125.486 C 29.138 127.748,29.388 133.429,33.212 135.406 C 34.202 135.918,39.191 136.000,69.373 136.000 L 104.385 136.000 104.570 136.900 C 104.672 137.395,104.843 139.060,104.950 140.600 C 105.456 147.880,108.192 160.819,110.786 168.200 C 111.482 170.180,112.319 172.610,112.646 173.600 C 112.973 174.590,113.402 175.760,113.600 176.200 C 114.007 177.104,117.326 184.264,118.328 186.400 C 122.721 195.763,135.895 213.432,143.488 220.142 C 144.520 221.054,146.550 222.915,148.000 224.277 C 149.450 225.639,152.069 227.784,153.818 229.042 C 155.568 230.301,157.913 232.018,159.028 232.858 C 168.521 240.010,185.916 248.072,199.600 251.660 C 207.077 253.621,208.644 253.930,215.508 254.796 C 217.108 254.998,218.591 255.271,218.805 255.403 C 219.018 255.535,224.373 255.653,230.704 255.665 C 241.526 255.687,244.063 255.521,251.073 254.337 C 252.433 254.108,253.774 254.060,254.052 254.232 C 254.729 254.650,258.565 254.434,258.733 253.968 C 258.807 253.766,259.572 253.600,260.433 253.600 C 261.295 253.600,262.000 253.420,262.000 253.200 C 262.000 252.980,262.720 252.800,263.600 252.800 C 264.480 252.800,265.200 252.620,265.200 252.400 C 265.200 252.180,265.920 252.000,266.800 252.000 C 267.680 252.000,268.400 251.820,268.400 251.600 C 268.400 251.380,268.940 251.200,269.600 251.200 C 270.260 251.200,270.800 251.020,270.800 250.800 C 270.800 250.580,271.340 250.400,272.000 250.400 C 272.660 250.400,273.200 250.220,273.200 250.000 C 273.200 249.780,273.650 249.600,274.200 249.600 C 274.750 249.600,275.200 249.420,275.200 249.200 C 275.200 248.980,275.740 248.800,276.400 248.800 C 277.060 248.800,277.600 248.620,277.600 248.400 C 277.600 248.180,278.140 248.000,278.800 248.000 C 279.460 248.000,280.000 247.820,280.000 247.600 C 280.000 247.380,280.360 247.200,280.800 247.200 C 281.240 247.200,281.600 247.020,281.600 246.800 C 281.600 246.580,281.872 246.400,282.205 246.400 C 282.538 246.400,283.168 246.220,283.605 246.000 C 284.042 245.780,284.758 245.420,285.195 245.200 C 285.632 244.980,286.262 244.800,286.595 244.800 C 286.928 244.800,287.200 244.620,287.200 244.400 C 287.200 244.180,287.560 244.000,288.000 244.000 C 288.440 244.000,288.800 243.820,288.800 243.600 C 288.800 243.380,289.160 243.200,289.600 243.200 C 290.040 243.200,290.400 243.020,290.400 242.800 C 290.400 242.580,290.670 242.400,291.000 242.400 C 291.330 242.400,291.600 242.220,291.600 242.000 C 291.600 241.780,291.864 241.600,292.186 241.600 C 292.999 241.600,295.600 240.324,295.600 239.926 C 295.600 239.747,295.960 239.600,296.400 239.600 C 296.840 239.600,297.200 239.420,297.200 239.200 C 297.200 238.980,297.478 238.800,297.817 238.800 C 298.156 238.800,298.820 238.440,299.292 238.000 C 299.764 237.560,300.387 237.200,300.675 237.200 C 300.964 237.200,301.200 237.020,301.200 236.800 C 301.200 236.580,301.520 236.400,301.912 236.400 C 302.303 236.400,302.883 236.040,303.200 235.600 C 303.517 235.160,303.962 234.800,304.188 234.800 C 304.588 234.799,305.838 233.842,308.107 231.797 C 308.716 231.249,309.408 230.800,309.646 230.800 C 309.884 230.800,310.594 230.249,311.223 229.576 L 312.367 228.351 345.992 261.976 C 364.486 280.469,379.749 295.604,379.909 295.609 C 380.069 295.614,380.650 295.970,381.200 296.400 C 381.750 296.830,382.605 297.186,383.100 297.191 C 383.595 297.196,384.000 297.380,384.000 297.600 C 384.000 297.839,385.533 298.000,387.800 298.000 C 390.067 298.000,391.600 297.839,391.600 297.600 C 391.600 297.380,392.140 297.200,392.800 297.200 C 393.460 297.200,394.000 297.020,394.000 296.800 C 394.000 296.580,394.275 296.400,394.611 296.400 C 395.386 296.400,398.800 293.013,398.800 292.244 C 398.800 291.926,399.025 291.592,399.300 291.500 C 399.671 291.376,399.800 289.750,399.800 285.199 C 399.800 280.648,399.671 279.023,399.300 278.900 C 399.025 278.808,398.800 278.518,398.800 278.255 C 398.800 277.992,398.440 277.517,398.000 277.200 C 397.560 276.883,397.200 276.495,397.200 276.339 C 397.200 276.182,382.440 261.309,364.400 243.287 C 334.252 213.171,330.818 209.600,332.000 209.600 C 332.220 209.600,332.400 209.332,332.400 209.003 C 332.400 208.675,332.940 207.891,333.600 207.260 C 334.260 206.629,334.800 205.996,334.800 205.853 C 334.800 205.710,335.340 205.028,336.000 204.337 C 336.660 203.646,337.200 202.920,337.200 202.722 C 337.200 202.525,337.636 201.928,338.169 201.395 C 338.702 200.862,339.254 200.060,339.396 199.613 C 339.538 199.166,339.822 198.800,340.027 198.800 C 340.232 198.800,340.400 198.517,340.400 198.171 C 340.400 197.826,340.670 197.273,341.000 196.943 C 341.330 196.613,341.600 195.996,341.600 195.571 C 341.600 195.147,341.780 194.800,342.000 194.800 C 342.220 194.800,342.400 194.506,342.400 194.147 C 342.400 193.788,342.729 193.203,343.130 192.847 C 343.532 192.491,344.116 191.615,344.428 190.900 C 344.740 190.185,345.131 189.600,345.298 189.600 C 345.464 189.600,345.600 189.330,345.600 189.000 C 345.600 188.670,345.780 188.400,346.000 188.400 C 346.220 188.400,346.400 187.950,346.400 187.400 C 346.400 186.850,346.580 186.400,346.800 186.400 C 347.020 186.400,347.200 186.040,347.200 185.600 C 347.200 185.160,347.380 184.800,347.600 184.800 C 347.820 184.800,348.000 184.440,348.000 184.000 C 348.000 183.560,348.180 183.200,348.400 183.200 C 348.620 183.200,348.800 182.840,348.800 182.400 C 348.800 181.960,348.980 181.600,349.200 181.600 C 349.420 181.600,349.600 181.240,349.600 180.800 C 349.600 180.360,349.780 180.000,350.000 180.000 C 350.220 180.000,350.400 179.640,350.400 179.200 C 350.400 178.760,350.580 178.400,350.800 178.400 C 351.020 178.400,351.200 178.038,351.200 177.595 C 351.200 177.152,351.380 176.432,351.600 175.995 C 351.820 175.558,352.180 174.842,352.400 174.405 C 352.620 173.968,352.800 173.248,352.800 172.805 C 352.800 172.362,352.980 172.000,353.200 172.000 C 353.420 172.000,353.600 171.561,353.600 171.024 C 353.600 170.487,353.780 169.936,354.000 169.800 C 354.220 169.664,354.400 169.113,354.400 168.576 C 354.400 168.039,354.580 167.600,354.800 167.600 C 355.020 167.600,355.200 167.060,355.200 166.400 C 355.200 165.740,355.380 165.200,355.600 165.200 C 355.820 165.200,356.000 164.480,356.000 163.600 C 356.000 162.720,356.180 162.000,356.400 162.000 C 356.620 162.000,356.800 161.368,356.800 160.595 C 356.800 159.822,356.971 158.877,357.180 158.495 C 357.715 157.515,358.496 153.092,358.696 149.900 C 358.789 148.415,359.031 147.200,359.233 147.200 C 359.435 147.200,359.600 145.940,359.600 144.400 C 359.600 142.800,359.771 141.600,360.000 141.600 C 360.259 141.600,360.400 136.800,360.400 128.000 C 360.400 119.200,360.259 114.400,360.000 114.400 C 359.774 114.400,359.600 113.267,359.600 111.800 C 359.600 110.370,359.439 109.200,359.242 109.200 C 359.046 109.200,358.786 107.805,358.665 106.100 C 358.427 102.744,357.779 99.415,356.018 92.500 C 355.808 91.675,355.517 90.505,355.371 89.900 C 355.226 89.295,354.948 88.800,354.753 88.800 C 354.559 88.800,354.400 88.260,354.400 87.600 C 354.400 86.940,354.220 86.400,354.000 86.400 C 353.780 86.400,353.600 85.860,353.600 85.200 C 353.600 84.540,353.420 84.000,353.200 84.000 C 352.980 84.000,352.800 83.460,352.800 82.800 C 352.800 82.140,352.620 81.600,352.400 81.600 C 352.180 81.600,352.000 81.161,352.000 80.624 C 352.000 80.087,351.820 79.536,351.600 79.400 C 351.380 79.264,351.200 78.803,351.200 78.376 C 351.200 77.949,351.064 77.600,350.898 77.600 C 350.731 77.600,350.341 77.015,350.030 76.300 C 349.719 75.585,349.316 74.900,349.134 74.778 C 348.952 74.655,348.764 74.070,348.715 73.478 C 348.666 72.885,348.485 72.400,348.313 72.400 C 348.141 72.400,348.000 72.040,348.000 71.600 C 348.000 71.160,347.820 70.800,347.600 70.800 C 347.380 70.800,347.200 70.440,347.200 70.000 C 347.200 69.560,347.020 69.200,346.800 69.200 C 346.580 69.200,346.400 68.840,346.400 68.400 C 346.400 67.960,346.220 67.600,346.000 67.600 C 345.780 67.600,345.600 67.280,345.600 66.888 C 345.600 66.497,345.240 65.917,344.800 65.600 C 344.360 65.283,344.000 64.703,344.000 64.312 C 344.000 63.920,343.820 63.600,343.600 63.600 C 343.380 63.600,343.200 63.240,343.200 62.800 C 343.200 62.360,343.053 62.000,342.873 62.000 C 342.692 62.000,341.853 60.695,341.008 59.100 C 340.163 57.505,339.140 55.909,338.736 55.553 C 338.331 55.197,338.000 54.729,338.000 54.512 C 338.000 54.296,337.460 53.554,336.800 52.863 C 336.140 52.172,335.600 51.424,335.600 51.200 C 335.600 50.976,335.060 50.228,334.400 49.537 C 333.740 48.846,333.200 48.116,333.200 47.915 C 333.200 47.713,332.300 46.671,331.200 45.600 C 330.100 44.529,329.200 43.557,329.200 43.440 C 329.200 43.324,328.075 42.042,326.700 40.591 C 320.952 34.528,318.120 31.729,316.800 30.805 C 316.030 30.266,314.739 29.145,313.931 28.313 C 313.124 27.481,312.331 26.800,312.169 26.800 C 312.008 26.800,311.286 26.350,310.564 25.800 C 309.843 25.250,308.983 24.800,308.654 24.800 C 308.324 24.800,307.940 24.440,307.800 24.000 C 307.660 23.560,307.288 23.200,306.973 23.200 C 306.658 23.200,306.400 23.020,306.400 22.800 C 306.400 22.580,306.218 22.400,305.996 22.400 C 305.774 22.400,305.028 21.860,304.337 21.200 C 303.646 20.540,302.838 20.000,302.541 20.000 C 302.243 20.000,302.000 19.820,302.000 19.600 C 302.000 19.380,301.640 19.200,301.200 19.200 C 300.760 19.200,300.400 19.020,300.400 18.800 C 300.400 18.580,300.080 18.400,299.688 18.400 C 299.297 18.400,298.717 18.040,298.400 17.600 C 298.083 17.160,297.503 16.800,297.112 16.800 C 296.720 16.800,296.400 16.620,296.400 16.400 C 296.400 16.180,296.080 16.000,295.688 16.000 C 295.297 16.000,294.717 15.640,294.400 15.200 C 294.083 14.760,293.503 14.400,293.112 14.400 C 292.720 14.400,292.400 14.220,292.400 14.000 C 292.400 13.780,292.040 13.600,291.600 13.600 C 291.160 13.600,290.800 13.464,290.800 13.298 C 290.800 13.131,290.215 12.758,289.500 12.467 C 288.785 12.177,287.508 11.593,286.662 11.170 C 285.816 10.746,284.871 10.400,284.562 10.400 C 284.253 10.400,284.000 10.220,284.000 10.000 C 284.000 9.780,283.751 9.600,283.446 9.600 C 283.141 9.600,282.376 9.331,281.746 9.002 C 281.116 8.674,280.105 8.404,279.500 8.402 C 278.895 8.401,278.400 8.220,278.400 8.000 C 278.400 7.780,277.860 7.600,277.200 7.600 C 276.540 7.600,276.000 7.420,276.000 7.200 C 276.000 6.980,275.550 6.800,275.000 6.800 C 274.450 6.800,274.000 6.620,274.000 6.400 C 274.000 6.180,273.550 6.000,273.000 6.000 C 272.450 6.000,272.000 5.820,272.000 5.600 C 272.000 5.380,271.550 5.200,271.000 5.200 C 270.450 5.200,270.000 5.020,270.000 4.800 C 270.000 4.580,269.280 4.400,268.400 4.400 C 267.520 4.400,266.800 4.220,266.800 4.000 C 266.800 3.780,266.080 3.600,265.200 3.600 C 264.320 3.600,263.600 3.420,263.600 3.200 C 263.600 2.980,262.880 2.800,262.000 2.800 C 261.120 2.800,260.400 2.620,260.400 2.400 C 260.400 2.180,259.691 2.000,258.824 2.000 C 257.957 2.000,257.136 1.820,257.000 1.600 C 256.864 1.380,255.719 1.200,254.456 1.200 C 253.166 1.200,251.943 0.983,251.665 0.705 C 251.176 0.216,222.219 -0.129,215.500 0.274 M241.000 24.401 C 246.865 24.958,252.177 25.812,256.200 26.844 C 260.605 27.974,263.626 28.823,264.600 29.205 C 265.040 29.378,266.030 29.736,266.800 30.000 C 267.570 30.264,268.605 30.643,269.100 30.840 C 269.595 31.038,270.405 31.362,270.900 31.559 C 277.457 34.176,285.226 38.302,290.370 41.898 C 293.120 43.821,297.256 46.854,297.600 47.199 C 297.710 47.310,299.330 48.744,301.200 50.387 C 303.070 52.029,305.207 54.009,305.949 54.787 C 309.282 58.277,313.200 62.813,314.944 65.200 C 315.989 66.630,317.138 68.156,317.496 68.590 C 318.244 69.498,322.000 75.559,322.000 75.857 C 322.000 75.967,322.505 76.808,323.121 77.728 C 324.434 79.685,328.308 88.255,329.574 92.000 C 330.057 93.430,330.604 94.960,330.790 95.400 C 331.381 96.801,331.691 97.761,332.050 99.300 C 332.243 100.125,332.572 101.475,332.782 102.300 C 333.845 106.477,334.088 107.574,334.399 109.600 C 334.586 110.810,334.972 113.240,335.258 115.000 C 335.945 119.227,335.944 136.234,335.257 140.800 C 334.257 147.448,334.056 148.620,333.630 150.300 C 332.924 153.089,332.421 155.111,332.039 156.700 C 331.715 158.046,329.125 165.453,328.088 168.000 C 326.770 171.237,323.420 177.864,321.653 180.729 C 320.524 182.561,319.600 184.192,319.600 184.354 C 319.600 184.516,319.283 184.998,318.896 185.425 C 318.509 185.851,317.021 187.836,315.589 189.836 C 310.475 196.978,302.114 205.489,295.244 210.546 C 292.040 212.905,286.028 216.960,285.200 217.320 C 284.870 217.464,283.700 218.121,282.600 218.780 C 264.288 229.747,239.545 234.027,215.400 230.404 C 204.960 228.838,190.799 223.969,181.960 218.906 C 126.358 187.058,111.338 116.912,149.134 65.600 C 157.974 53.598,172.883 41.121,185.389 35.258 C 186.494 34.741,188.658 33.721,190.199 32.993 C 204.212 26.367,224.891 22.870,241.000 24.401 M35.400 151.389 C 35.180 151.466,34.503 151.640,33.895 151.774 C 28.651 152.931,29.089 160.986,34.484 162.588 C 37.503 163.484,79.240 163.501,82.251 162.607 C 87.175 161.145,88.245 155.841,84.263 152.637 L 82.726 151.400 59.263 151.324 C 46.358 151.282,35.620 151.311,35.400 151.389 " stroke="none" fill="#53536b" fill-rule="evenodd"></path><path id="path1" d="M216.200 25.679 C 206.766 27.417,197.028 30.184,191.600 32.670 C 185.497 35.464,179.749 38.480,177.538 40.047 C 176.954 40.461,176.350 40.800,176.195 40.800 C 175.074 40.800,164.160 49.773,158.963 54.967 C 152.851 61.076,143.200 73.321,143.200 74.967 C 143.200 75.050,142.514 76.262,141.676 77.659 C 140.837 79.057,139.826 80.920,139.428 81.800 C 139.030 82.680,138.114 84.662,137.392 86.205 C 124.983 112.723,126.280 150.833,140.453 176.155 C 145.019 184.313,149.564 190.981,153.433 195.200 C 154.341 196.190,155.965 197.990,157.042 199.200 C 163.624 206.596,176.656 216.219,186.200 220.733 C 191.230 223.111,193.180 223.949,195.600 224.770 C 197.030 225.255,198.560 225.803,199.000 225.986 C 201.697 227.110,208.353 228.821,214.400 229.946 C 231.047 233.041,259.866 221.519,278.200 204.439 C 286.893 196.340,296.604 183.552,300.554 175.000 C 300.961 174.120,301.799 172.320,302.416 171.000 C 313.814 146.635,314.647 112.231,304.392 89.400 C 303.212 86.772,301.044 81.997,300.488 80.800 C 291.564 61.587,269.309 40.686,249.400 32.818 C 248.080 32.296,246.820 31.738,246.600 31.577 C 246.075 31.193,237.111 28.224,234.800 27.668 C 224.354 25.155,220.992 24.796,216.200 25.679 M1.291 43.692 C -0.088 44.357,-0.025 34.929,0.091 222.800 L 0.200 399.800 126.484 399.901 L 252.768 400.001 253.584 399.125 C 254.699 397.928,254.899 254.677,253.786 254.250 C 253.448 254.120,252.323 254.174,251.286 254.368 C 246.350 255.295,242.389 255.627,235.302 255.710 L 227.604 255.800 227.602 312.520 C 227.600 372.963,227.659 371.031,225.782 371.752 C 225.426 371.888,215.241 372.000,203.149 372.000 L 181.164 372.000 180.182 371.018 L 179.200 370.036 179.194 307.518 C 179.191 273.133,179.056 244.799,178.894 244.553 C 178.732 244.308,177.230 243.476,175.555 242.705 C 173.881 241.934,171.361 240.625,169.955 239.797 C 168.550 238.969,166.860 237.980,166.200 237.600 C 162.530 235.486,161.339 234.690,156.480 231.095 C 153.553 228.930,150.898 227.059,150.580 226.937 C 150.075 226.743,150.000 235.979,150.000 298.482 C 150.000 370.153,149.999 370.250,149.184 371.125 L 148.369 372.000 126.054 372.000 L 103.739 372.000 102.770 370.968 L 101.800 369.936 101.700 283.068 C 101.602 198.384,101.619 196.169,102.359 194.958 C 103.365 193.311,104.095 193.200,113.873 193.200 L 122.046 193.200 120.604 190.700 C 119.271 188.391,117.832 185.497,114.684 178.800 C 110.193 169.243,106.054 153.098,104.799 140.239 C 104.587 138.071,104.246 136.548,103.925 136.345 C 103.636 136.162,87.782 136.009,68.694 136.006 L 33.989 136.000 32.611 135.100 C 29.238 132.898,29.301 127.654,32.728 125.328 C 33.738 124.642,35.820 124.588,69.000 124.391 C 88.360 124.277,104.245 124.142,104.300 124.091 C 104.355 124.041,104.405 122.965,104.410 121.700 C 104.422 119.021,105.060 112.095,105.431 110.617 L 105.687 109.600 71.263 109.600 C 48.648 109.600,36.165 109.455,34.874 109.178 C 30.440 108.228,28.654 103.611,31.281 99.894 C 32.984 97.485,30.989 97.600,70.957 97.600 C 96.524 97.600,107.633 97.471,107.817 97.172 C 107.963 96.936,108.402 95.451,108.794 93.872 C 109.396 91.444,111.178 86.020,112.201 83.500 C 112.471 82.836,110.527 82.800,74.673 82.800 C 33.269 82.800,33.757 82.826,31.529 80.527 C 28.987 77.904,29.960 73.059,33.353 71.449 C 34.587 70.863,38.740 70.799,75.860 70.794 C 98.487 70.791,117.201 70.656,117.446 70.494 C 117.692 70.332,118.259 69.480,118.706 68.600 C 121.611 62.888,129.949 50.449,134.065 45.686 C 136.398 42.986,142.022 43.197,68.700 43.227 C 21.398 43.246,1.938 43.381,1.291 43.692 M84.080 152.133 C 87.755 154.627,87.504 160.358,83.634 162.286 C 81.839 163.180,37.591 163.621,34.532 162.775 C 28.881 161.213,28.688 152.361,34.285 151.481 C 38.318 150.846,83.047 151.432,84.080 152.133 M73.294 242.367 L 74.600 243.534 74.702 306.267 C 74.798 365.403,74.764 369.080,74.102 370.400 L 73.400 371.800 50.748 371.903 C 28.925 372.003,28.062 371.978,27.148 371.239 L 26.200 370.471 26.096 307.262 L 25.993 244.053 26.961 242.927 L 27.930 241.800 39.065 241.588 C 45.189 241.471,55.102 241.336,61.094 241.288 L 71.987 241.200 73.294 242.367 " stroke="none" fill="#cbe4f2" fill-rule="evenodd"></path><path id="path2" d="M222.637 24.451 C 218.633 24.836,217.667 25.198,220.633 25.203 C 223.590 25.208,227.136 25.825,234.800 27.668 C 237.111 28.224,246.075 31.193,246.600 31.577 C 246.820 31.738,248.080 32.296,249.400 32.818 C 269.309 40.686,291.564 61.587,300.488 80.800 C 301.044 81.997,303.212 86.772,304.392 89.400 C 314.647 112.231,313.814 146.635,302.416 171.000 C 301.799 172.320,300.961 174.120,300.554 175.000 C 293.387 190.516,275.898 208.958,259.753 218.026 C 246.491 225.475,227.654 231.373,219.438 230.649 C 217.446 230.474,217.293 230.498,218.600 230.781 C 236.129 234.575,265.387 229.088,282.600 218.780 C 283.700 218.121,284.870 217.464,285.200 217.320 C 286.028 216.960,292.040 212.905,295.244 210.546 C 302.114 205.489,310.475 196.978,315.589 189.836 C 317.021 187.836,318.509 185.851,318.896 185.425 C 319.283 184.998,319.600 184.516,319.600 184.354 C 319.600 184.192,320.524 182.561,321.653 180.729 C 323.420 177.864,326.770 171.237,328.088 168.000 C 329.125 165.453,331.715 158.046,332.039 156.700 C 332.421 155.111,332.924 153.089,333.630 150.300 C 334.056 148.620,334.257 147.448,335.257 140.800 C 335.944 136.234,335.945 119.227,335.258 115.000 C 334.972 113.240,334.586 110.810,334.399 109.600 C 334.088 107.574,333.845 106.477,332.782 102.300 C 332.572 101.475,332.243 100.125,332.050 99.300 C 331.691 97.761,331.381 96.801,330.790 95.400 C 330.604 94.960,330.057 93.430,329.574 92.000 C 328.308 88.255,324.434 79.685,323.121 77.728 C 322.505 76.808,322.000 75.967,322.000 75.857 C 322.000 75.559,318.244 69.498,317.496 68.590 C 317.138 68.156,315.989 66.630,314.944 65.200 C 313.200 62.813,309.282 58.277,305.949 54.787 C 305.207 54.009,303.070 52.029,301.200 50.387 C 299.330 48.744,297.710 47.310,297.600 47.199 C 297.256 46.854,293.120 43.821,290.370 41.898 C 285.226 38.302,277.457 34.176,270.900 31.559 C 270.405 31.362,269.595 31.038,269.100 30.840 C 268.605 30.643,267.570 30.264,266.800 30.000 C 266.030 29.736,265.040 29.378,264.600 29.205 C 263.626 28.823,260.605 27.974,256.200 26.844 C 246.683 24.403,233.162 23.439,222.637 24.451 M214.800 25.600 L 213.000 25.880 214.600 25.900 C 215.480 25.911,216.650 25.776,217.200 25.600 C 218.463 25.195,217.402 25.195,214.800 25.600 M210.600 26.400 C 209.511 26.677,209.493 26.707,210.400 26.725 C 210.950 26.735,211.760 26.589,212.200 26.400 C 213.186 25.976,212.266 25.976,210.600 26.400 M202.400 28.406 C 201.978 28.682,202.215 28.723,203.200 28.542 C 204.925 28.225,205.251 27.998,203.967 28.006 C 203.435 28.009,202.730 28.189,202.400 28.406 M199.000 29.629 C 198.120 30.052,197.838 30.286,198.374 30.149 C 199.839 29.773,201.886 28.829,201.200 28.845 C 200.870 28.853,199.880 29.206,199.000 29.629 M181.000 37.600 C 180.340 38.037,179.980 38.392,180.200 38.388 C 180.601 38.382,182.776 36.823,182.400 36.812 C 182.290 36.808,181.660 37.163,181.000 37.600 M177.100 39.829 C 176.495 40.157,176.000 40.510,176.000 40.613 C 176.000 40.999,176.632 40.757,177.600 40.000 C 178.789 39.070,178.611 39.009,177.100 39.829 M171.599 43.596 C 166.302 47.494,164.043 49.337,164.020 49.778 C 164.009 49.987,164.585 49.606,165.300 48.933 C 166.015 48.260,168.490 46.315,170.800 44.610 C 175.093 41.441,175.897 40.800,175.579 40.800 C 175.480 40.800,173.689 42.058,171.599 43.596 M158.281 55.077 C 155.938 57.429,154.106 59.439,154.210 59.543 C 154.315 59.648,154.445 59.653,154.500 59.554 C 154.555 59.455,156.487 57.445,158.793 55.087 C 161.099 52.729,162.886 50.800,162.764 50.800 C 162.642 50.800,160.625 52.725,158.281 55.077 M152.540 61.300 C 151.871 62.015,150.825 63.320,150.215 64.200 C 149.112 65.794,149.388 65.509,152.438 61.900 C 154.280 59.722,154.338 59.380,152.540 61.300 M148.329 66.700 C 147.378 67.818,145.928 70.000,146.135 70.000 C 146.240 70.000,146.972 69.100,147.762 68.000 C 149.185 66.019,149.477 65.350,148.329 66.700 M144.553 72.100 C 143.176 74.436,143.086 74.635,143.787 73.800 C 144.600 72.832,145.300 71.600,145.038 71.600 C 144.933 71.600,144.715 71.825,144.553 72.100 M142.253 76.100 L 141.533 77.400 142.358 76.400 C 143.089 75.513,143.414 74.800,143.086 74.800 C 143.024 74.800,142.649 75.385,142.253 76.100 M140.600 78.800 C 140.259 79.460,140.069 80.000,140.179 80.000 C 140.289 80.000,140.659 79.460,141.000 78.800 C 141.341 78.140,141.531 77.600,141.421 77.600 C 141.311 77.600,140.941 78.140,140.600 78.800 M138.255 83.455 C 137.876 84.249,137.653 84.986,137.759 85.093 C 137.866 85.199,138.236 84.609,138.582 83.782 C 139.398 81.829,139.149 81.580,138.255 83.455 M54.900 82.700 C 65.405 82.759,82.595 82.759,93.100 82.700 C 103.605 82.641,95.010 82.592,74.000 82.592 C 52.990 82.592,44.395 82.641,54.900 82.700 M133.800 94.400 C 133.650 94.873,133.617 95.350,133.727 95.460 C 133.837 95.570,134.050 95.273,134.200 94.800 C 134.350 94.327,134.383 93.850,134.273 93.740 C 134.163 93.630,133.950 93.927,133.800 94.400 M132.273 98.953 C 132.123 99.345,132.011 99.966,132.025 100.333 C 132.042 100.775,132.181 100.674,132.437 100.034 C 132.649 99.503,132.761 98.882,132.685 98.654 C 132.609 98.427,132.424 98.561,132.273 98.953 M131.429 102.629 C 131.281 103.215,131.238 103.772,131.332 103.866 C 131.427 103.960,131.624 103.558,131.771 102.971 C 131.919 102.385,131.962 101.828,131.868 101.734 C 131.773 101.640,131.576 102.042,131.429 102.629 M130.600 106.000 C 130.448 106.691,130.407 107.341,130.509 107.442 C 130.611 107.544,130.809 107.053,130.950 106.350 C 131.283 104.683,130.960 104.360,130.600 106.000 M129.853 109.636 C 129.714 110.331,129.621 111.373,129.647 111.950 C 129.672 112.528,129.855 112.027,130.052 110.839 C 130.437 108.521,130.273 107.534,129.853 109.636 M53.330 109.500 C 62.972 109.560,78.632 109.560,88.130 109.500 C 97.629 109.440,89.740 109.391,70.600 109.391 C 51.460 109.391,43.689 109.440,53.330 109.500 M129.059 115.088 C 128.921 115.919,128.831 117.410,128.858 118.400 C 128.892 119.684,129.002 119.288,129.241 117.021 C 129.593 113.678,129.484 112.516,129.059 115.088 M128.340 125.100 C 128.250 126.805,128.281 129.550,128.408 131.200 C 128.584 133.469,128.652 132.714,128.690 128.100 C 128.744 121.464,128.597 120.207,128.340 125.100 M128.840 138.033 C 128.862 139.225,129.020 140.650,129.192 141.200 C 129.369 141.764,129.414 140.893,129.297 139.200 C 129.051 135.647,128.783 134.964,128.840 138.033 M129.640 144.433 C 129.662 145.185,129.830 146.250,130.013 146.800 C 130.229 147.446,130.266 147.020,130.119 145.600 C 129.859 143.083,129.581 142.407,129.640 144.433 M130.468 149.000 C 130.462 149.440,130.611 150.160,130.800 150.600 C 131.238 151.619,131.238 150.568,130.800 149.200 C 130.543 148.396,130.477 148.357,130.468 149.000 M131.268 152.200 C 131.262 152.640,131.411 153.360,131.600 153.800 C 132.038 154.819,132.038 153.768,131.600 152.400 C 131.343 151.596,131.277 151.557,131.268 152.200 M132.056 155.600 C 132.056 155.930,132.211 156.560,132.400 157.000 C 132.617 157.504,132.744 157.578,132.744 157.200 C 132.744 156.870,132.589 156.240,132.400 155.800 C 132.183 155.296,132.056 155.222,132.056 155.600 M138.417 172.700 C 138.439 173.101,139.962 175.870,139.983 175.549 C 140.011 175.135,138.805 172.400,138.595 172.400 C 138.488 172.400,138.408 172.535,138.417 172.700 M140.360 176.600 C 141.034 177.905,141.588 178.628,141.585 178.200 C 141.583 177.980,141.214 177.350,140.764 176.800 C 140.221 176.136,140.085 176.069,140.360 176.600 M142.656 180.700 C 144.130 183.271,148.404 189.555,148.877 189.847 C 149.086 189.977,148.106 188.399,146.698 186.341 C 145.290 184.284,143.649 181.745,143.052 180.700 C 142.455 179.655,141.876 178.800,141.766 178.800 C 141.656 178.800,142.057 179.655,142.656 180.700 M149.940 191.516 C 150.433 192.209,151.044 192.904,151.297 193.060 C 151.550 193.217,151.354 192.777,150.860 192.084 C 150.367 191.391,149.756 190.696,149.503 190.540 C 149.250 190.383,149.446 190.823,149.940 191.516 M155.062 197.531 C 157.008 199.693,158.667 201.411,158.748 201.349 C 158.965 201.185,152.261 193.675,151.862 193.635 C 151.676 193.616,153.116 195.369,155.062 197.531 M162.600 204.952 C 165.970 208.167,169.600 211.116,169.600 210.639 C 169.600 210.523,168.707 209.747,167.616 208.914 C 166.525 208.081,164.140 206.077,162.316 204.459 L 159.000 201.518 162.600 204.952 M170.000 210.925 C 170.000 211.024,170.661 211.609,171.468 212.225 C 172.276 212.841,172.811 213.141,172.656 212.891 C 172.340 212.379,170.000 210.647,170.000 210.925 M176.800 215.779 C 176.800 215.889,177.340 216.259,178.000 216.600 C 178.660 216.941,179.200 217.131,179.200 217.021 C 179.200 216.911,178.660 216.541,178.000 216.200 C 177.340 215.859,176.800 215.669,176.800 215.779 M180.400 217.967 C 181.363 218.752,182.000 219.008,182.000 218.610 C 182.000 218.506,181.415 218.135,180.700 217.786 L 179.400 217.152 180.400 217.967 M182.582 219.170 C 182.826 219.565,188.051 222.083,188.238 221.896 C 188.312 221.821,187.026 221.106,185.379 220.306 C 183.732 219.506,182.474 218.995,182.582 219.170 M192.000 223.766 C 192.550 224.060,193.450 224.412,194.000 224.549 C 194.550 224.686,194.280 224.452,193.400 224.029 C 191.590 223.158,190.468 222.948,192.000 223.766 M196.000 225.266 C 197.538 225.905,199.339 226.406,199.047 226.114 C 198.717 225.783,195.935 224.806,195.400 224.831 C 195.180 224.842,195.450 225.038,196.000 225.266 M202.033 227.344 C 202.125 227.423,202.740 227.608,203.400 227.756 C 204.276 227.952,204.438 227.915,204.000 227.618 C 203.460 227.253,201.632 226.998,202.033 227.344 M205.233 228.144 C 205.325 228.223,205.940 228.408,206.600 228.556 C 207.476 228.752,207.638 228.715,207.200 228.418 C 206.660 228.053,204.832 227.798,205.233 228.144 M209.200 229.200 C 210.568 229.638,211.619 229.638,210.600 229.200 C 210.160 229.011,209.440 228.862,209.000 228.868 C 208.357 228.877,208.396 228.943,209.200 229.200 M213.000 230.000 C 214.692 230.431,216.144 230.431,214.800 230.000 C 214.250 229.824,213.350 229.683,212.800 229.687 C 211.902 229.694,211.922 229.726,213.000 230.000 M179.200 307.435 L 179.400 370.471 180.344 371.235 C 181.294 372.004,223.863 372.488,225.782 371.752 C 227.659 371.031,227.600 372.968,227.600 312.461 L 227.600 255.682 222.700 255.460 C 214.944 255.109,209.058 254.141,199.600 251.660 C 194.582 250.344,185.156 247.111,181.489 245.448 C 180.217 244.872,179.137 244.400,179.089 244.400 C 179.040 244.400,179.090 272.766,179.200 307.435 " stroke="none" fill="#5bd3f1" fill-rule="evenodd"></path><path id="path3" d="M104.075 193.486 C 101.389 193.999,101.589 186.455,101.700 283.068 L 101.800 369.936 102.770 370.968 L 103.739 372.000 126.074 372.000 C 148.031 372.000,148.420 371.986,149.104 371.187 C 149.758 370.423,149.812 366.043,150.000 298.346 L 150.200 226.317 147.779 224.059 C 146.448 222.816,144.515 221.054,143.485 220.142 C 138.184 215.450,127.644 202.448,123.764 195.815 L 122.234 193.200 113.617 193.254 C 108.878 193.284,104.584 193.388,104.075 193.486 M55.524 241.499 C 58.673 241.567,63.713 241.567,66.724 241.499 C 69.736 241.431,67.160 241.376,61.000 241.376 C 54.840 241.376,52.376 241.432,55.524 241.499 M74.595 307.000 C 74.595 341.320,74.642 355.301,74.700 338.069 C 74.758 320.836,74.758 292.756,74.700 275.669 C 74.642 258.581,74.595 272.680,74.595 307.000 " stroke="none" fill="#fbc859" fill-rule="evenodd"></path><path id="path4" d="M28.186 241.981 C 26.075 242.836,26.200 238.741,26.200 306.896 L 26.200 370.069 27.322 371.035 L 28.445 372.000 50.440 372.000 L 72.436 372.000 73.418 371.018 L 74.400 370.036 74.400 306.800 L 74.400 243.564 73.418 242.582 L 72.436 241.600 50.718 241.625 C 38.773 241.639,28.634 241.799,28.186 241.981 " stroke="none" fill="#ef2858" fill-rule="evenodd"></path></g></svg>